<?xml version="1.0" encoding="utf-8"?>
<!-- Generator: Adobe Illustrator 21.1.0, SVG Export Plug-In . SVG Version: 6.00 Build 0)  -->
<svg version="1.1" xmlns="http://www.w3.org/2000/svg" xmlns:xlink="http://www.w3.org/1999/xlink" x="0px" y="0px"
	 viewBox="0 0 792 612" style="enable-background:new 0 0 792 612;" xml:space="preserve">
<style type="text/css">
	.st0{fill:#67C8F1;}
	.st1{fill:#333333;}
	.st2{fill:#F79868;}
	.st3{fill:#FFFFFF;}
	.st4{fill:#F26739;}
	.st5{fill:#DDDDDD;}
	.st6{fill:#444545;}
	.st7{fill:#EEEEEE;}
	.st8{fill:#BBBBBB;}
	.st9{font-family:'Courier';}
	.st10{font-size:27px;}
</style>
<g id="Layer_1">
	<rect class="st0" width="792" height="612"/>
	<path class="st1" d="M743.3,226H49c-12.7,0-23-10.3-23-23v-94.5c0-12.7,10.3-23,23-23h694.3c12.7,0,23,10.3,23,23V203
		C766.3,215.7,756,226,743.3,226z"/>
	<rect x="35.6" y="111" class="st2" width="720.8" height="110.5"/>
	<rect x="51" y="-6.8" class="st3" width="693.4" height="117.8"/>
	<rect x="35.6" y="221.5" class="st4" width="720.8" height="282.7"/>
	<rect x="68.5" y="248.3" class="st1" width="650.4" height="225.7"/>
	<rect x="45.1" y="97.6" class="st4" width="5.8" height="13.4"/>
	<rect x="744.4" y="97.6" class="st4" width="5.8" height="13.4"/>
	<circle cx="124" cy="292.4" r="20.3"/>
	<path d="M542.5,466.9H243.1c-6.6,0-12-5.4-12-12v-12.1c0-6.6,5.4-12,12-12h299.4c6.6,0,12,5.4,12,12v12.1
		C554.5,461.5,549.1,466.9,542.5,466.9z"/>
	<circle cx="147.3" cy="344.3" r="20.3"/>
	<circle cx="186.6" cy="397.1" r="20.3"/>
	<circle cx="245.1" cy="397.1" r="20.3"/>
	<circle cx="307.6" cy="397.1" r="20.3"/>
	<circle cx="369.9" cy="397.1" r="20.3"/>
	<circle cx="432.5" cy="397.1" r="20.3"/>
	<circle cx="497.2" cy="397.1" r="20.3"/>
	<circle cx="559.2" cy="397.1" r="20.3"/>
	<circle cx="206.2" cy="344.3" r="20.3"/>
	<circle cx="264.7" cy="344.3" r="20.3"/>
	<circle cx="327.2" cy="344.3" r="20.3"/>
	<circle cx="389.6" cy="344.3" r="20.3"/>
	<circle cx="452.2" cy="344.3" r="20.3"/>
	<circle cx="516.8" cy="344.3" r="20.3"/>
	<circle cx="578.9" cy="344.3" r="20.3"/>
	<circle cx="640.9" cy="344.3" r="20.3"/>
	<circle cx="185.9" cy="291.5" r="20.3"/>
	<circle cx="244.4" cy="291.5" r="20.3"/>
	<circle cx="306.9" cy="291.5" r="20.3"/>
	<circle cx="369.3" cy="291.5" r="20.3"/>
	<circle cx="431.9" cy="291.5" r="20.3"/>
	<circle cx="496.5" cy="291.5" r="20.3"/>
	<circle cx="558.6" cy="291.5" r="20.3"/>
	<circle cx="620.6" cy="291.5" r="20.3"/>
	<circle cx="676" cy="292.4" r="20.3"/>
	<rect x="744.4" y="73.5" class="st2" width="5.8" height="24.1"/>
	<circle class="st3" cx="118.4" cy="284.7" r="20.3"/>
	<path class="st3" d="M537,459.2H237.5c-6.6,0-12-5.4-12-12v-12.1c0-6.6,5.4-12,12-12H537c6.6,0,12,5.4,12,12v12.1
		C549,453.8,543.6,459.2,537,459.2z"/>
	<circle class="st3" cx="141.7" cy="336.5" r="20.3"/>
	<circle class="st3" cx="181" cy="389.4" r="20.3"/>
	<circle class="st3" cx="239.5" cy="389.4" r="20.3"/>
	<circle class="st3" cx="302" cy="389.4" r="20.3"/>
	<circle class="st3" cx="364.3" cy="389.4" r="20.3"/>
	<circle class="st3" cx="427" cy="389.4" r="20.3"/>
	<circle class="st3" cx="491.6" cy="389.4" r="20.3"/>
	<circle class="st3" cx="553.6" cy="389.4" r="20.3"/>
	<circle class="st3" cx="200.7" cy="336.5" r="20.3"/>
	<circle class="st3" cx="259.2" cy="336.5" r="20.3"/>
	<circle class="st3" cx="321.6" cy="336.5" r="20.3"/>
	<circle class="st3" cx="384" cy="336.5" r="20.3"/>
	<circle class="st3" cx="446.6" cy="336.5" r="20.3"/>
	<circle class="st3" cx="511.3" cy="336.5" r="20.3"/>
	<circle class="st3" cx="573.3" cy="336.5" r="20.3"/>
	<circle class="st3" cx="635.3" cy="336.5" r="20.3"/>
	<circle class="st3" cx="180.3" cy="283.7" r="20.3"/>
	<circle class="st3" cx="238.8" cy="283.7" r="20.3"/>
	<circle class="st3" cx="301.3" cy="283.7" r="20.3"/>
	<circle class="st3" cx="363.7" cy="283.7" r="20.3"/>
	<circle class="st3" cx="426.3" cy="283.7" r="20.3"/>
	<circle class="st3" cx="491" cy="283.7" r="20.3"/>
	<circle class="st3" cx="553" cy="283.7" r="20.3"/>
	<circle class="st3" cx="615" cy="283.7" r="20.3"/>
	<circle class="st3" cx="670.4" cy="284.7" r="20.3"/>
	<g>
		<g>
			<path class="st5" d="M44.9,73.9c-7.2-1.4-14.8-2.4-21.6,1.3C18.2,78,14.5,83,12.2,88.2c-3.3,7.5-3.4,15.6-3.5,23.7
				c-0.1,8.9-0.2,17.8-0.2,26.7c-0.3,36.6-0.3,73.1-0.2,109.7c0,6.4,10,6.4,10,0c-0.2-32-0.1-63.9,0.1-95.9
				c0.1-15.8-0.2-31.6,0.5-47.4c0.3-6.4,1.4-13.1,5.7-18.1c4.7-5.4,11.2-4.6,17.6-3.4C48.5,84.8,51.2,75.1,44.9,73.9L44.9,73.9z"/>
		</g>
	</g>
	<rect x="45.1" y="73.5" class="st2" width="5.8" height="24.1"/>
	<path class="st6" d="M148.6,134c0,39.4,113.6,71.4,253.7,71.4c140.1,0,253.7-32,253.7-71.4H148.6z"/>
	<rect x="278" y="108.9" width="239.4" height="25.1"/>
	<rect x="51.3" y="97.6" class="st7" width="693.1" height="13.4"/>
	<g>
		<path class="st8" d="M398.1,152c66.1-0.5,119.5-22.7,119.3-49.6L278,104.3C278.2,131.2,332,152.5,398.1,152z"/>
		<path class="st8" d="M439.5,95.7c0.1-18.8-7.6-34.1-17.3-34.2l-0.5,68.1C431.4,129.7,439.4,114.5,439.5,95.7z"/>
		<path class="st8" d="M354.7,95.8c0.2,18.8,8.3,33.9,18,33.8l-0.8-68.1C362.2,61.7,354.5,77,354.7,95.8z"/>
	</g>
	<rect x="374" y="103.4" width="45.7" height="27.6"/>
	<text transform="matrix(1 0 0 1 134.197 344.2399)" class="st9 st10">A</text>
	<text transform="matrix(1 0 0 1 192.4946 343.7082)" class="st9 st10">S</text>
	<text transform="matrix(1 0 0 1 251.5888 344.7445)" class="st9 st10">D</text>
	<text transform="matrix(1 0 0 1 314.2993 343.4067)" class="st9 st10">F</text>
	<text transform="matrix(1 0 0 1 376.6537 344.4066)" class="st9 st10">G</text>
	<text transform="matrix(1 0 0 1 438.954 344.6847)" class="st9 st10">H</text>
	<text transform="matrix(1 0 0 1 502.724 343.9805)" class="st9 st10">J</text>
	<text transform="matrix(1 0 0 1 565.8214 344.4069)" class="st9 st10">K</text>
	<text transform="matrix(1 0 0 1 628.9748 343.9806)" class="st9 st10">L</text>
	<text transform="matrix(1 0 0 1 110.4938 289.838)" class="st9 st10">Q</text>
	<text transform="matrix(1 0 0 1 172.0018 290.8381)" class="st9 st10">W</text>
	<text transform="matrix(1 0 0 1 230.4982 290.8381)" class="st9 st10">E</text>
	<text transform="matrix(1 0 0 1 293.8723 291.2427)" class="st9 st10">R</text>
	<text transform="matrix(1 0 0 1 355.7504 291.5476)" class="st9 st10">T</text>
	<text transform="matrix(1 0 0 1 417.9876 291.5477)" class="st9 st10">Y</text>
	<text transform="matrix(1 0 0 1 482.4192 291.1573)" class="st9 st10">U</text>
	<text transform="matrix(1 0 0 1 545.3909 291.5479)" class="st9 st10">I</text>
	<text transform="matrix(1 0 0 1 606.8525 291.5476)" class="st9 st10">O</text>
	<text transform="matrix(1 0 0 1 662.9777 292.5331)" class="st9 st10">P</text>
	<text transform="matrix(1 0 0 1 172.752 396.4987)" class="st9 st10">Z</text>
	<text transform="matrix(1 0 0 1 231.3338 396.8889)" class="st9 st10">X</text>
	<text transform="matrix(1 0 0 1 294.012 397.7354)" class="st9 st10">C</text>
	<text transform="matrix(1 0 0 1 356.5085 397.4989)" class="st9 st10">V</text>
	<text transform="matrix(1 0 0 1 419.1281 397.1938)" class="st9 st10">B</text>
	<text transform="matrix(1 0 0 1 483.4625 396.4987)" class="st9 st10">N</text>
	<text transform="matrix(1 0 0 1 545.1407 396.4989)" class="st9 st10">M</text>
</g>
<g id="Layer_2">
</g>
</svg>
